<?xml version="1.0" standalone="no"?>
<!DOCTYPE svg PUBLIC "-//W3C//DTD SVG 20010904//EN"
 "http://www.w3.org/TR/2001/REC-SVG-20010904/DTD/svg10.dtd">
<svg version="1.0" xmlns="http://www.w3.org/2000/svg"
 width="776.000000pt" height="776.000000pt" viewBox="0 0 776.000000 776.000000"
 preserveAspectRatio="xMidYMid meet">
<metadata>
Created by potrace 1.14, written by Peter Selinger 2001-2017
</metadata>
<g transform="translate(0.000000,776.000000) scale(0.100000,-0.100000)"
fill="#000000" stroke="none">
<path d="M1490 7734 c-734 -40 -1329 -567 -1456 -1289 -12 -67 -14 -473 -14
-2585 0 -2659 -2 -2549 45 -2730 26 -102 90 -257 146 -355 212 -373 547 -628
982 -747 l82 -23 2605 0 c2477 0 2608 1 2670 18 309 86 516 199 724 397 213
203 356 453 434 760 l27 105 0 2575 0 2575 -27 105 c-31 122 -74 243 -118 330
-206 408 -569 703 -1005 816 -195 51 -46 48 -2635 49 -1323 1 -2430 0 -2460
-1z m4784 -382 c214 -49 401 -134 565 -257 297 -223 485 -535 546 -910 22
-135 22 -4515 0 -4650 -61 -375 -249 -687 -546 -910 -164 -123 -351 -208 -565
-257 l-99 -22 -2215 -4 c-2304 -3 -2344 -3 -2520 39 -439 103 -818 429 -979
843 -45 116 -67 195 -87 316 -21 127 -21 4513 0 4640 105 640 600 1116 1236
1189 41 5 1085 8 2320 7 l2245 -2 99 -22z"/>
<path d="M3170 5775 l0 -1195 -1200 0 -1200 0 2 -697 3 -698 1198 -3 1197 -2
0 -1195 0 -1195 695 0 695 0 0 1195 0 1195 1195 0 1195 0 0 700 0 700 -752 0
-752 0 250 253 c271 273 294 304 333 447 16 55 21 101 20 175 -1 55 -4 90 -6
78 l-4 -23 -1185 0 -1184 0 0 25 0 25 1186 0 1186 0 -7 38 c-30 162 -164 328
-332 411 -119 60 -291 78 -418 46 -120 -31 -199 -79 -319 -196 l-112 -108 -93
93 c-51 51 -117 108 -146 127 l-54 34 -1 483 0 482 -695 0 -695 0 0 -1195z
m2843 -525 c-5 -20 -14 -20 -1158 -20 -1144 0 -1153 0 -1158 20 -5 20 0 20
1158 20 1158 0 1163 0 1158 -20z m-198 -280 c-18 -20 -31 -20 -960 -20 -929 0
-942 0 -960 20 -18 20 -17 20 960 20 977 0 978 0 960 -20z m-275 -275 l-23
-25 -662 0 -662 0 -23 25 -23 25 708 0 708 0 -23 -25z m-290 -290 l-24 -25
-372 0 -371 1 -23 24 -23 25 418 0 418 0 -23 -25z m-295 -295 c-15 -17 -31
-20 -100 -20 -69 0 -85 3 -100 20 -18 20 -17 20 100 20 117 0 118 0 100 -20z"/>
</g>
</svg>
